<svg xmlns="http://www.w3.org/2000/svg" xmlns:xlink="http://www.w3.org/1999/xlink" viewBox="0 0 533.84 620.33"><defs><style>.cls-1{fill:url(#linear-gradient);}.cls-2{fill:url(#linear-gradient-2);}.cls-3{fill:url(#linear-gradient-3);}.cls-4{font-size:169.15px;fill:#004e92;font-family:Montserrat-ExtraBold, Montserrat;font-weight:800;letter-spacing:-0.01em;}.cls-5{letter-spacing:-0.02em;}</style><linearGradient id="linear-gradient" x1="265.36" y1="257.85" x2="189.61" y2="176.05" gradientUnits="userSpaceOnUse"><stop offset="0.25" stop-color="#004e92"/><stop offset="0.76" stop-color="#1f96ff"/></linearGradient><linearGradient id="linear-gradient-2" y1="204.37" x2="496.55" y2="204.37" gradientUnits="userSpaceOnUse"><stop offset="0.09" stop-color="#002050"/><stop offset="0.38" stop-color="#004e92"/><stop offset="0.76" stop-color="#1f96ff"/></linearGradient><linearGradient id="linear-gradient-3" x1="507.68" y1="27.22" x2="404.39" y2="92.46" xlink:href="#linear-gradient"/></defs><g id="Layer_2" data-name="Layer 2"><g id="Brand_Book" data-name="Brand Book"><path class="cls-1" d="M264.66,252.42h0a36.63,36.63,0,0,1-21.11,8.88,35.35,35.35,0,0,1-20.26-4.89c-21.59-12.32-29.35-31.64-29.35-31.64h0a117.59,117.59,0,0,0-16.57-24.33C166.91,188.76,161.16,188,161.13,188h0c1,.13,3.19-1.3,4.09-1.64,2.31-.87,4.64-1.65,7-2.37a111.7,111.7,0,0,1,20.48-4.24c21-2.29,41.91,3,58.7,15.9,4.6,3.55,11.37,8.84,16.11,18.32,2.19,4.37,7.59,15.16,3.78,27.19A30.35,30.35,0,0,1,264.66,252.42Z"/><path class="cls-2" d="M191.82,408.75c-5.5,0-13.38,0-24.83-.1-15.92-.09-37.09-.28-44.76-.5a142.53,142.53,0,0,1-16.3-1.12,122.58,122.58,0,0,1-5.65-242A158.65,158.65,0,0,1,152.2,95.88a157.24,157.24,0,0,1,203.51,11.57,99.77,99.77,0,0,0,14.9-15.84c16.9-22.43,25-53,24.13-90.75L412.37.45,431.65,0c1.09,46.29-9.53,84.59-31.55,113.82a136.52,136.52,0,0,1-20.84,22.08,156,156,0,0,1,21.4,51.39c66.73,9.09,114.78,77.74,88.65,150.46a54.69,54.69,0,0,1-2.36,5.59c-20,41-58.69,64.7-101,64.81h-63.4V371.23h63.35a74,74,0,0,0-.25-148h-.31l-16.78.37-2-16.66A119.42,119.42,0,0,0,349,157.1C332.4,167.55,318,177,306.54,198.1c-7,12.89-10.53,29.74-17.5,63.3-3.59,17.32-5.43,30.73-7.05,42.56-3.36,24.51-5.78,42.22-20.58,63.94-15.91,23.36-34.68,37-55.8,40.5C204.36,408.61,203.53,408.75,191.82,408.75Zm55.32-307.86c-53,0-100.4,35.43-115.37,86.16l-3.58,12.15-12.63,1c-44.1,3.56-78.64,41.06-78.64,85.37a85.89,85.89,0,0,0,74,84.86,106.8,106.8,0,0,0,11.77.78h.44c13.5.4,68.66.67,77.48.55,10.43-2.15,20.62-10.44,30.31-24.67,9.91-14.55,11.45-25.78,14.52-48.17,1.61-11.8,3.63-26.5,7.48-45,7.71-37.14,11.57-55.79,21.24-73.48,14.6-26.76,33.09-40.41,50.28-51.45A120.06,120.06,0,0,0,247.14,100.89Z"/><path class="cls-3" d="M413.63,73.81h0A36.55,36.55,0,0,0,429.81,90a35.39,35.39,0,0,0,20.6,3.14C475.06,89.93,489.56,75,489.56,75h0a117.3,117.3,0,0,1,24.53-16.25c14.11-6.86,19.72-5.41,19.75-5.4h0c-.93-.25-2.46-2.42-3.17-3.07q-2.71-2.52-5.58-4.84a112.1,112.1,0,0,0-17.35-11.68c-18.56-10.06-39.92-13.09-60.35-7.49-5.61,1.54-13.87,3.88-21.85,10.86-3.68,3.22-12.77,11.17-13.79,23.75A30.16,30.16,0,0,0,413.63,73.81Z"/><text class="cls-4" transform="translate(0.64 575)">t<tspan class="cls-5" x="73.92" y="0">r</tspan><tspan x="145.98" y="0">ellis</tspan></text></g></g></svg>