<svg xmlns="http://www.w3.org/2000/svg" viewBox="0 0 286.01 218.99"><defs><style>.cls-1{fill:#fff;}</style></defs><g id="Layer_2" data-name="Layer 2"><g id="Brand_Book" data-name="Brand Book"><path class="cls-1" d="M141.8,135.24h0A19.68,19.68,0,0,1,130.48,140a18.88,18.88,0,0,1-10.85-2.62,38.12,38.12,0,0,1-15.73-17h0a62.72,62.72,0,0,0-8.87-13c-5.61-6.26-8.68-6.68-8.7-6.68h0c.51.07,1.71-.7,2.2-.88,1.23-.46,2.48-.89,3.74-1.27a59.65,59.65,0,0,1,11-2.27,43.46,43.46,0,0,1,31.45,8.52,27.74,27.74,0,0,1,8.63,9.81c1.17,2.34,4.07,8.12,2,14.57A16.2,16.2,0,0,1,141.8,135.24Z"/><path class="cls-1" d="M102.77,219c-2.94,0-7.17,0-13.3-.05-8.53-.05-19.87-.15-24-.27a74,74,0,0,1-8.74-.6,65.67,65.67,0,0,1-3-129.64A85,85,0,0,1,81.54,51.37a84.24,84.24,0,0,1,109,6.2,53.56,53.56,0,0,0,8-8.49c9.05-12,13.4-28.37,12.93-48.62l9.44-.22L231.26,0c.59,24.8-5.1,45.32-16.9,61a73,73,0,0,1-11.17,11.83,83.64,83.64,0,0,1,11.47,27.53c35.75,4.87,61.49,41.65,47.5,80.62a30.12,30.12,0,0,1-1.27,3c-10.71,22-31.44,34.66-54.13,34.72h-34V198.89h33.94a39.66,39.66,0,0,0-.13-79.31h-.17l-9,.2-1.05-8.93A64,64,0,0,0,187,84.17c-8.89,5.6-16.58,10.68-22.75,22-3.76,6.9-5.64,15.93-9.37,33.91-1.92,9.28-2.91,16.46-3.78,22.8-1.8,13.13-3.1,22.62-11,34.26-8.53,12.51-18.59,19.81-29.9,21.7C109.49,218.92,109.05,219,102.77,219ZM132.41,54.05A64.79,64.79,0,0,0,70.6,100.21l-1.92,6.52-6.77.54a45.89,45.89,0,0,0-2.49,91.2,56.48,56.48,0,0,0,6.3.42H66c7.23.21,36.78.36,41.51.29,5.59-1.15,11-5.59,16.24-13.21,5.31-7.8,6.13-13.82,7.78-25.81.86-6.33,1.94-14.2,4-24.14,4.13-19.9,6.21-29.89,11.38-39.37C154.7,82.32,164.61,75,173.81,69.1A64.29,64.29,0,0,0,132.41,54.05Z"/><path class="cls-1" d="M221.61,39.55h0a19.61,19.61,0,0,0,8.67,8.68,19,19,0,0,0,11,1.68,38.12,38.12,0,0,0,21-9.74h0a63.33,63.33,0,0,1,13.14-8.71C283,27.79,286,28.57,286,28.57h0c-.5-.13-1.32-1.29-1.7-1.64-1-.9-2-1.77-3-2.6a60,60,0,0,0-9.3-6.25,43.43,43.43,0,0,0-32.34-4A27.6,27.6,0,0,0,228,19.88c-2,1.73-6.84,6-7.39,12.72A16.28,16.28,0,0,0,221.61,39.55Z"/></g></g></svg>