<svg xmlns="http://www.w3.org/2000/svg" xmlns:xlink="http://www.w3.org/1999/xlink" viewBox="0 0 263 263"><defs><style>.cls-1{fill:url(#linear-gradient);}.cls-2{font-size:52.3px;font-family:Montserrat-ExtraBold, Montserrat;font-weight:800;letter-spacing:-0.01em;}.cls-2,.cls-5{fill:#fff;}.cls-3{letter-spacing:-0.02em;}.cls-4{letter-spacing:-0.01em;}</style><linearGradient id="linear-gradient" x1="25.12" y1="218.36" x2="252.24" y2="32.91" gradientUnits="userSpaceOnUse"><stop offset="0.09" stop-color="#002050"/><stop offset="0.38" stop-color="#004e92"/><stop offset="0.76" stop-color="#1f96ff"/></linearGradient></defs><g id="Layer_2" data-name="Layer 2"><g id="Brand_Book" data-name="Brand Book"><rect class="cls-1" width="263" height="263" rx="37.07"/><text class="cls-2" transform="translate(54.75 212.93)">t<tspan class="cls-3" x="22.86" y="0">r</tspan><tspan class="cls-4" x="45.14" y="0">ellis</tspan></text><path class="cls-5" d="M134.39,110.52h0a9.92,9.92,0,0,1-5.75,2.42,9.67,9.67,0,0,1-5.53-1.33,19.43,19.43,0,0,1-8-8.63h0a32.08,32.08,0,0,0-4.52-6.63c-2.85-3.19-4.42-3.4-4.42-3.4h0c.26,0,.87-.36,1.11-.45.63-.24,1.27-.45,1.91-.65a30.38,30.38,0,0,1,5.58-1.15,22.1,22.1,0,0,1,16,4.33,14.13,14.13,0,0,1,4.39,5c.6,1.19,2.07,4.13,1,7.41A8.16,8.16,0,0,1,134.39,110.52Z"/><path class="cls-5" d="M114.53,153.14l-6.77,0c-4.34,0-10.11-.08-12.2-.14a40.6,40.6,0,0,1-4.45-.31,33.42,33.42,0,0,1-1.53-66,43.15,43.15,0,0,1,14.15-18.86A42.87,42.87,0,0,1,159.22,71a28.2,28.2,0,0,0,4.06-4.32c4.61-6.12,6.82-14.44,6.58-24.75l4.8-.11,5.26-.12c.3,12.62-2.6,23.06-8.6,31a37.17,37.17,0,0,1-5.68,6,42.62,42.62,0,0,1,5.83,14c18.2,2.48,31.29,21.2,24.17,41-.19.52-.4,1-.64,1.53C189.55,146.49,179,153,167.45,153H150.16V142.91h17.28a20.18,20.18,0,0,0-.07-40.36h-.09l-4.57.1-.53-4.54a32.53,32.53,0,0,0-4.8-13.58C152.86,87.38,149,90,145.81,95.71c-1.92,3.51-2.87,8.11-4.77,17.26-1,4.72-1.48,8.38-1.92,11.6-.92,6.68-1.58,11.51-5.61,17.44-4.34,6.36-9.46,10.08-15.22,11A26.93,26.93,0,0,1,114.53,153.14Zm15.08-83.93A33,33,0,0,0,98.16,92.7l-1,3.31-3.44.28a23.35,23.35,0,0,0-1.27,46.41,29.22,29.22,0,0,0,3.21.21h.12c3.68.1,18.72.18,21.12.15,2.85-.59,5.62-2.85,8.27-6.73s3.12-7,3.95-13.13c.45-3.22,1-7.23,2-12.29,2.11-10.12,3.16-15.21,5.8-20,4-7.3,9-11,13.7-14A32.74,32.74,0,0,0,129.61,69.21Z"/><path class="cls-5" d="M175,61.82h0a9.88,9.88,0,0,0,4.41,4.42,9.64,9.64,0,0,0,5.62.86,19.36,19.36,0,0,0,10.67-5h0a31.74,31.74,0,0,1,6.69-4.43c3.84-1.87,5.37-1.47,5.38-1.47h0c-.25-.07-.67-.66-.86-.84-.5-.46-1-.9-1.52-1.32a30.57,30.57,0,0,0-4.73-3.18,22.13,22.13,0,0,0-16.46-2,14,14,0,0,0-6,3c-1,.88-3.48,3-3.75,6.47A8,8,0,0,0,175,61.82Z"/></g></g></svg>