<svg xmlns="http://www.w3.org/2000/svg" xmlns:xlink="http://www.w3.org/1999/xlink" viewBox="0 0 224.68 261.08"><defs><style>.cls-1{fill:url(#linear-gradient);}.cls-2{fill:url(#linear-gradient-2);}.cls-3{fill:url(#linear-gradient-3);}.cls-4{font-size:71.19px;fill:#004e92;font-family:Montserrat-ExtraBold, Montserrat;font-weight:800;letter-spacing:-0.01em;}.cls-5{letter-spacing:-0.02em;}.cls-6{letter-spacing:-0.01em;}</style><linearGradient id="linear-gradient" x1="111.68" y1="108.52" x2="79.8" y2="74.09" gradientUnits="userSpaceOnUse"><stop offset="0.25" stop-color="#004e92"/><stop offset="0.76" stop-color="#1f96ff"/></linearGradient><linearGradient id="linear-gradient-2" y1="86.01" x2="208.98" y2="86.01" gradientUnits="userSpaceOnUse"><stop offset="0.09" stop-color="#002050"/><stop offset="0.38" stop-color="#004e92"/><stop offset="0.76" stop-color="#1f96ff"/></linearGradient><linearGradient id="linear-gradient-3" x1="213.67" y1="11.45" x2="170.19" y2="38.91" xlink:href="#linear-gradient"/></defs><g id="Layer_2" data-name="Layer 2"><g id="Brand_Book" data-name="Brand Book"><path class="cls-1" d="M111.39,106.23h0A15.42,15.42,0,0,1,102.5,110,14.85,14.85,0,0,1,94,107.91,29.93,29.93,0,0,1,81.62,94.6h0a49.18,49.18,0,0,0-7-10.24c-4.4-4.92-6.82-5.25-6.83-5.25h0c.4,0,1.34-.55,1.72-.69,1-.36,1.95-.7,2.94-1a47.81,47.81,0,0,1,8.62-1.78,34.1,34.1,0,0,1,24.71,6.69A21.76,21.76,0,0,1,112.59,90c.92,1.84,3.2,6.38,1.59,11.44A12.65,12.65,0,0,1,111.39,106.23Z"/><path class="cls-2" d="M80.73,172c-2.31,0-5.63,0-10.45,0-6.7,0-15.61-.12-18.84-.21a60.36,60.36,0,0,1-6.86-.48A51.59,51.59,0,0,1,42.21,69.46,66.78,66.78,0,0,1,64.05,40.35a66.19,66.19,0,0,1,85.66,4.87A42,42,0,0,0,156,38.55c7.11-9.44,10.53-22.28,10.15-38.19l7.42-.17L181.67,0c.45,19.48-4,35.6-13.28,47.9a57.1,57.1,0,0,1-8.77,9.29,65.9,65.9,0,0,1,9,21.63c28.08,3.83,48.3,32.72,37.3,63.33a20.15,20.15,0,0,1-1,2.35c-8.41,17.26-24.7,27.23-42.52,27.28H135.73V156.24H162.4a31.16,31.16,0,0,0-.11-62.31h-.13l-7.06.16-.83-7a50.22,50.22,0,0,0-7.39-21c-7,4.4-13,8.39-17.87,17.26-3,5.42-4.43,12.51-7.36,26.64-1.51,7.28-2.29,12.93-3,17.91-1.41,10.31-2.43,17.77-8.66,26.91-6.7,9.83-14.6,15.56-23.48,17C86,172,85.66,172,80.73,172ZM104,42.46A50.9,50.9,0,0,0,55.46,78.72L54,83.84l-5.32.43a36,36,0,0,0-2,71.64,45.65,45.65,0,0,0,5,.33h.18c5.68.17,28.9.29,32.61.24,4.39-.91,8.68-4.4,12.76-10.39s4.82-10.85,6.11-20.27c.68-5,1.53-11.15,3.15-19,3.24-15.63,4.87-23.48,8.93-30.93,6.15-11.26,13.93-17,21.17-21.65A50.57,50.57,0,0,0,104,42.46Z"/><path class="cls-3" d="M174.08,31.07h0a15.52,15.52,0,0,0,6.81,6.82,14.89,14.89,0,0,0,8.67,1.32A29.94,29.94,0,0,0,206,31.56h0a49.23,49.23,0,0,1,10.32-6.84c5.94-2.89,8.3-2.28,8.32-2.28h0c-.4-.1-1-1-1.34-1.29-.76-.7-1.54-1.38-2.35-2a47.32,47.32,0,0,0-7.3-4.91,34.14,34.14,0,0,0-25.4-3.15,21.7,21.7,0,0,0-9.19,4.57c-1.55,1.35-5.38,4.7-5.81,10A12.76,12.76,0,0,0,174.08,31.07Z"/><text class="cls-4" transform="translate(0.27 242)">t<tspan class="cls-5" x="31.11" y="0">r</tspan><tspan class="cls-6" x="61.44" y="0">ellis</tspan></text></g></g></svg>