<svg xmlns="http://www.w3.org/2000/svg" xmlns:xlink="http://www.w3.org/1999/xlink" viewBox="0 0 197.45 197.45"><defs><style>.cls-1{fill:url(#linear-gradient);}.cls-2{font-size:52.3px;font-family:Montserrat-ExtraBold, Montserrat;font-weight:800;letter-spacing:-0.01em;}.cls-2,.cls-5{fill:#fff;}.cls-3{letter-spacing:-0.02em;}.cls-4{letter-spacing:-0.01em;}</style><linearGradient id="linear-gradient" x1="21.21" y1="162.02" x2="186.7" y2="26.89" gradientUnits="userSpaceOnUse"><stop offset="0.09" stop-color="#002050"/><stop offset="0.38" stop-color="#004e92"/><stop offset="0.76" stop-color="#1f96ff"/></linearGradient></defs><g id="Layer_2" data-name="Layer 2"><g id="Brand_Book" data-name="Brand Book"><rect class="cls-1" width="197.45" height="197.45" rx="37.07"/><text class="cls-2" transform="translate(21.98 180.16)">t<tspan class="cls-3" x="22.86" y="0">r</tspan><tspan class="cls-4" x="45.14" y="0">ellis</tspan></text><path class="cls-5" d="M101.62,77.75h0a10.09,10.09,0,0,1-5.76,2.42,9.65,9.65,0,0,1-5.52-1.34,19.31,19.31,0,0,1-8-8.62h0a32.08,32.08,0,0,0-4.52-6.63c-2.85-3.19-4.42-3.4-4.43-3.4h0c.26,0,.87-.36,1.12-.45.63-.24,1.26-.45,1.91-.65A31.26,31.26,0,0,1,82,57.92a22.16,22.16,0,0,1,16,4.34,14.17,14.17,0,0,1,4.39,5c.6,1.2,2.07,4.14,1,7.42A8.25,8.25,0,0,1,101.62,77.75Z"/><path class="cls-5" d="M81.76,120.37l-6.77,0c-4.34,0-10.11-.07-12.2-.13a40.45,40.45,0,0,1-4.45-.31,33.43,33.43,0,0,1-1.54-66A43.27,43.27,0,0,1,71,35.07a42.87,42.87,0,0,1,55.48,3.15,26.89,26.89,0,0,0,4.07-4.32C134.4,28.73,136.59,22,137,13.78a5,5,0,0,1,4.87-4.73h0l5.26-.12c.29,12.62-2.6,23.06-8.6,31a37.19,37.19,0,0,1-5.69,6,42.43,42.43,0,0,1,5.84,14c18.19,2.48,31.29,21.19,24.17,41a13.93,13.93,0,0,1-.65,1.54c-5.45,11.18-16,17.63-27.54,17.67H123a5.65,5.65,0,0,1-5.64-5.64v-4.43h17.27a20.18,20.18,0,0,0-.07-40.36h-.08l-4.57.1-.54-4.55a32.47,32.47,0,0,0-4.79-13.57c-4.52,2.85-8.44,5.43-11.57,11.18-1.92,3.51-2.87,8.1-4.77,17.26-1,4.72-1.48,8.37-1.93,11.6-.91,6.68-1.57,11.51-5.61,17.43-4.33,6.37-9.45,10.09-15.21,11A23.59,23.59,0,0,1,81.76,120.37ZM96.84,36.43A33,33,0,0,0,65.39,59.92l-1,3.32L61,63.52a23.35,23.35,0,0,0-1.27,46.41,29.22,29.22,0,0,0,3.21.21H63c3.68.11,18.72.19,21.12.15,2.84-.58,5.62-2.84,8.26-6.72s3.13-7,4-13.14c.44-3.22,1-7.22,2-12.28,2.1-10.13,3.16-15.21,5.79-20,4-7.3,9-11,13.71-14A32.69,32.69,0,0,0,96.84,36.43Z"/><path class="cls-5" d="M142.23,29.05h0a10,10,0,0,0,4.42,4.42,9.69,9.69,0,0,0,5.61.86,19.5,19.5,0,0,0,10.68-5h0a31.83,31.83,0,0,1,6.68-4.43c3.85-1.87,5.38-1.48,5.39-1.47h0c-.26-.07-.67-.66-.87-.84-.49-.46-1-.9-1.52-1.32a30.39,30.39,0,0,0-4.73-3.19,22.15,22.15,0,0,0-16.45-2,14.17,14.17,0,0,0-6,3c-1,.88-3.48,3.05-3.76,6.48A8.38,8.38,0,0,0,142.23,29.05Z"/></g></g></svg>