<?xml version="1.0" standalone="no"?>
<!DOCTYPE svg PUBLIC "-//W3C//DTD SVG 20010904//EN"
 "http://www.w3.org/TR/2001/REC-SVG-20010904/DTD/svg10.dtd">
<svg version="1.0" xmlns="http://www.w3.org/2000/svg"
 width="300.000000pt" height="300.000000pt" viewBox="0 0 300.000000 300.000000"
 preserveAspectRatio="xMidYMid meet">
<g transform="translate(0.000000,300.000000) scale(0.100000,-0.100000)"
fill="#ffffff" stroke="none">
<path d="M0 1500 l0 -1500 1500 0 1500 0 0 1500 0 1500 -1500 0 -1500 0 0
-1500z m1722 223 l1088 -1088 0 -150 0 -150 -631 631 -631 631 -671 -674
c-368 -370 -674 -673 -679 -673 -4 0 -8 69 -8 153 l0 152 595 595 c327 327
595 599 595 605 0 5 -235 245 -522 532 l-523 523 150 0 150 0 1087 -1087z
m-415 995 c51 -51 93 -97 93 -101 0 -11 -138 -147 -148 -147 -4 0 -84 77 -177
170 l-170 170 155 0 155 0 92 -92z m283 83 c0 -5 -12 -16 -26 -26 -26 -17 -27
-16 -53 9 l-26 26 53 0 c28 0 52 -4 52 -9z m268 -308 l-318 -318 -77 78 -78
77 240 240 240 240 155 0 155 0 -317 -317z m892 310 c0 -12 -904 -913 -915
-913 -6 0 -44 34 -85 75 l-75 75 385 385 385 385 152 0 c84 0 153 -3 153 -7z
m-2096 -587 c251 -249 456 -457 456 -462 0 -5 -34 -43 -75 -84 l-75 -75 -385
385 -385 385 0 152 c0 84 2 153 4 153 3 0 210 -204 460 -454z m1811 -276
l-345 -345 -75 75 -75 75 417 417 418 418 3 -147 3 -147 -346 -346z m-1935
-193 c0 -8 -326 -337 -334 -337 -3 0 -6 154 -6 342 l0 343 170 -170 c94 -93
170 -173 170 -178z m2080 -242 l-200 -200 -75 75 -75 75 272 272 273 273 3
-147 3 -147 -201 -201z m-1860 30 l75 -75 -318 -318 -317 -317 0 155 0 155
237 237 c131 131 240 238 243 238 3 0 39 -34 80 -75z m2060 -367 l0 -263 -132
132 -133 133 130 130 c71 71 131 130 132 130 2 0 3 -118 3 -262z m-686 -421
c300 -299 546 -546 546 -550 0 -4 -69 -7 -152 -7 l-153 0 -487 487 -488 488
77 77 c70 71 78 76 94 62 9 -8 262 -259 563 -557z m-1064 -212 l-345 -345
-150 0 -150 0 420 420 420 420 75 -75 75 -75 -345 -345z m435 -145 l-200 -200
-150 0 -150 0 275 275 275 275 75 -75 75 -75 -200 -200z m470 -70 l130 -130
-265 0 -265 0 130 130 c71 72 132 130 135 130 3 0 64 -58 135 -130z"/>
</g>
</svg>
