<?xml version="1.0" encoding="utf-8"?>
<!-- Generator: Adobe Illustrator 25.4.1, SVG Export Plug-In . SVG Version: 6.00 Build 0)  -->
<svg version="1.1" id="Layer_1" xmlns="http://www.w3.org/2000/svg" xmlns:xlink="http://www.w3.org/1999/xlink" x="0px" y="0px"
	 viewBox="0 0 816 649" style="enable-background:new 0 0 816 649;" xml:space="preserve">
<style type="text/css">
	.st0{fill:#FFFFFF;}
</style>
<g transform="translate(0.000000,649.000000) scale(0.100000,-0.100000)">
	<path class="st0" d="M6192.5,6356.7c-109.2-55.5-135.1-111.1-161-340.6c-44.4-388.7-157.3-727.4-320.2-964.3
		c-74-107.4-240.6-290.6-264.7-290.6c-11.1,0-53.7,31.5-96.2,70.3c-192.5,175.8-518.2,364.6-794,459
		c-753.3,257.3-1615.8,116.6-2234-360.9c-309.1-238.8-625.6-640.4-744.1-945.8c-40.7-107.4-40.7-107.4-144.4-129.6
		C906.4,3737.7,377,3295.3,160.5,2790C32.7,2488.3,1.3,2323.6,14.2,1973.8c9.3-316.5,44.4-477.5,161-723.7
		c101.8-216.6,216.6-381.3,383.1-544.2c240.6-236.9,481.2-379.4,801.4-472c244.3-72.2,425.7-83.3,1188.3-77.7l708.9,5.6l162.9,79.6
		c266.5,129.6,531.2,407.2,686.7,718.1c103.6,209.2,144.4,360.9,194.3,720c44.4,305.4,62.9,416.5,133.3,771.8
		c135.1,671.9,194.3,847.7,357.2,1079.1c98.1,137,212.9,242.5,405.3,373.9l140.7,96.2l37-61.1c112.9-181.4,207.3-479.4,242.5-764.4
		l24.1-190.6h198c366.5,0,623.8-101.8,860.7-340.6c225.8-225.8,327.6-473.8,325.8-799.6c0-318.4-111.1-577.5-338.7-795.9
		c-140.7-135.1-238.8-198-401.6-261c-116.6-46.3-144.4-48.1-695.9-64.8c-314.7-7.4-594.1-11.1-616.3-5.6l-44.4,11.1l7.4-194.3
		c5.6-209.2,24.1-251.7,133.3-333.2c48.1-37,74-38.9,581.2-37c520.1,0,534.9,1.9,690.4,50c222.1,66.6,346.1,125.9,503.4,233.2
		c351.7,242.5,603.4,601.5,701.5,992.1c57.4,231.4,55.5,618.2-1.9,832.9C7375.2,2897.4,6853.3,3397.1,6248,3510l-118.5,22.2
		l-24.1,90.7c-44.4,174-138.8,410.9-220.3,555.3l-81.4,142.5l138.8,140.7c157.3,159.2,310.9,377.6,401.6,575.6l61.1,131.4l51.8-53.7
		c133.3-138.8,375.7-172.1,634.9-85.1c162.9,55.5,259.1,112.9,453.5,270.2c161,131.4,379.4,248,516.4,277.6l98.1,22.2l-72.2,62.9
		c-288.7,244.3-607.1,375.7-927.3,375.7c-166.6,0-401.6-51.8-503.4-111.1c-35.2-22.2-64.8-37-68.5-33.3
		c-1.9,3.7,1.9,116.6,7.4,251.7l11.1,244.3h-175.8C6299.9,6390,6238.8,6380.7,6192.5,6356.7z M6542.3,6106.8
		c0-283.2,5.6-292.4,155.5-225.8c138.8,61.1,414.6,109.2,547.9,94.4c246.2-27.8,451.6-105.5,664.5-249.9
		c114.8-77.7,138.8-112.9,81.4-112.9c-81.4,0-359.1-162.9-551.6-323.9c-268.4-225.8-616.3-310.9-832.9-203.6
		c-50,24.1-114.8,62.9-142.5,85.1c-25.9,22.2-61.1,35.2-77.7,29.6c-14.8-5.6-62.9-79.6-105.5-164.7
		c-109.2-218.4-205.4-353.5-383.1-538.6c-85.1-88.8-151.8-168.4-148.1-175.8c3.7-7.4,57.4-118.5,122.2-244.3
		c62.9-127.7,135.1-305.4,161-397.9c25.9-90.7,53.7-172.1,62.9-181.4c16.7-16.7,170.3-59.2,279.5-77.7c35.2-5.6,72.2-18.5,83.3-25.9
		c9.3-7.4,48.1-25.9,83.3-38.9c109.2-42.6,331.3-181.4,438.7-272.1c231.4-198,429.4-516.4,505.3-808.8
		c51.8-207.3,51.8-629.3,0-836.6c-146.2-575.6-634.9-1049.5-1216-1184.6c-177.7-40.7-1019.8-57.4-1123.5-22.2
		c-124,42.6-151.8,116.6-142.5,381.3l1.9,40.7l486.8,1.9c536.8,0,647.8,13,847.7,90.7c288.7,114.8,546,383.1,666.3,694.1
		c68.5,177.7,92.5,449.8,53.7,642.3c-79.6,405.3-385,758.9-781.1,897.7c-105.5,38.9-185.1,50-366.5,59.2l-231.4,11.1l-13,133.3
		c-25.9,259.1-116.6,551.6-236.9,760.7c-68.5,118.5-94.4,120.3-246.2,18.5c-303.5-203.6-481.2-410.9-605.2-707
		c-81.4-196.2-242.5-932.8-323.9-1491.8c-25.9-177.7-55.5-360.9-64.8-407.2c-55.5-285-214.7-571.9-453.5-814.4
		c-135.1-138.8-279.5-231.4-451.6-290.6c-118.5-40.7-148.1-40.7-797.7-42.6c-847.7,0-1038.3,24.1-1382.6,175.8
		c-283.2,125.9-627.5,431.3-782.9,694.1C138.2,1387,66.1,1659.1,64.2,2034.9c0,496,144.4,873.6,468.3,1217.9
		c248,264.7,497.9,418.3,842.2,520.1c85.1,24.1,162.9,50,174,55.5c9.3,7.4,53.7,83.3,96.2,172.1c98.1,205.4,140.7,275.8,279.5,455.3
		c338.7,436.8,808.8,727.4,1388.2,855.1c199.9,42.6,612.6,51.8,823.6,16.7c235.1-38.9,227.7-37,416.5-103.6
		c294.3-105.5,536.8-242.5,753.3-427.6c57.4-50,118.5-90.7,135.1-90.7c50,0,209.2,164.7,318.4,329.5
		c177.7,266.5,279.5,573.8,322.1,973.6c29.6,272.1,75.9,318.4,314.7,323.9l146.2,3.7V6106.8z"/>
	<path class="st0" d="M3617.9,4907.4c-781.1-81.4-1404.8-583-1645.4-1328.9l-53.7-159.2l-107.4-14.8
		c-224-27.8-386.8-75.9-551.6-157.3c-142.5-70.3-196.2-111.1-344.3-261c-142.5-144.4-192.5-209.2-255.4-335
		c-196.2-397.9-199.9-823.6-11.1-1216c127.7-268.4,364.6-505.3,627.5-634.9c270.2-133.3,285-135.1,1105-144.4l736.7-5.6l96.2,51.8
		c249.9,135.1,473.8,464.6,544.2,803.3c13,66.6,40.7,233.2,61.1,370.2c20.4,137,48.1,316.5,59.2,399.8
		c29.6,194.3,25.9,199.9-174,199.9c-124,0-168.4,7.4-244.3,46.3c-137,68.5-344.3,273.9-416.4,410.9
		c-87,170.3-209.2,344.3-323.9,473.8l-101.8,111.1l131.4,31.5c72.2,16.7,196.2,33.3,273.9,40.7c298,22.2,651.5-99.9,869.9-299.8
		c59.2-55.5,120.3-101.8,135.1-101.8c31.5,0,57.4,46.3,107.4,192.5c72.2,214.7,261,509,429.4,671.9
		c44.4,42.6,155.5,131.4,246.2,199.9c186.9,138.8,203.6,159.2,175.8,211c-24.1,48.1-294.3,225.8-435,288.7
		c-161,70.3-399.8,137-542.3,148.1c-68.5,5.6-153.6,13-188.8,16.7C3786.3,4920.4,3693.8,4914.8,3617.9,4907.4z M4145.4,4818.6
		c273.9-55.5,590.4-199.9,758.9-342.4c46.3-40.7,50-50,27.8-64.8c-14.8-9.3-94.4-66.6-177.7-129.6
		c-320.2-238.8-557.1-560.8-681.1-927.3l-44.4-131.4l-38.9,50c-20.4,27.8-85.1,85.1-142.5,131.4
		c-327.6,251.7-771.8,314.7-1236.4,170.3l-127.7-40.7l53.7-37c148.1-103.6,338.7-342.4,451.6-568.2
		c92.5-183.2,264.7-357.2,453.5-459c79.6-42.6,114.8-50,253.6-50c135.1,0,161-3.7,153.6-27.8c-3.7-14.8-24.1-140.7-46.3-277.6
		c-85.1-540.5-111.1-681.1-138.8-770c-74-222.1-320.2-522-494.2-599.7c-72.2-33.3-124-37-616.3-37c-844,0-1047.6,27.8-1321.5,179.5
		c-149.9,83.3-370.2,292.4-460.9,438.7c-253.6,403.5-275.8,855.1-66.6,1284.5c72.2,148.1,111.1,201.7,244.3,335
		c253.6,251.7,462.7,351.7,821.8,392.4l192.5,20.4l31.5,118.5c142.5,546,546,1008.7,1071.7,1234.5
		C3390.3,4850.1,3801.2,4890.8,4145.4,4818.6z"/>
</g>
</svg>
