<?xml version="1.0" encoding="utf-8"?>
<!-- Generator: Adobe Illustrator 25.4.1, SVG Export Plug-In . SVG Version: 6.00 Build 0)  -->
<svg version="1.1" id="Layer_1" xmlns="http://www.w3.org/2000/svg" xmlns:xlink="http://www.w3.org/1999/xlink" x="0px" y="0px"
	 viewBox="0 0 816 649" style="enable-background:new 0 0 816 649;" xml:space="preserve">
<g transform="translate(0.000000,649.000000) scale(0.100000,-0.100000)">
	<path d="M6191.8,6356.7c-109.2-55.5-135.2-111.1-161.1-340.7c-57.4-503.6-209.2-873.9-475.9-1157.2c-51.8-53.7-100-98.1-111.1-98.1
		c-9.3,0-51.8,31.5-94.4,70.4c-190.7,174-548.1,381.4-807.3,462.9c-579.5,185.2-1153.5,162.9-1703.4-64.8
		c-462.9-194.4-866.5-549.9-1144.3-1012.8c-42.6-70.4-96.3-175.9-118.5-235.1c-37-96.3-48.1-107.4-107.4-118.5
		c-90.7-16.7-327.7-98.1-416.6-142.6c-385.1-192.6-727.7-555.5-903.6-953.6C40.9,2523.9,16.9,2392.5,15,2038.8
		c0-283.3,5.6-344.4,42.6-481.4C265,802,900,255.8,1675.8,166.9c90.7-11.1,479.6-16.7,870.2-13l709.1,5.6l159.2,77.8
		c329.6,161.1,640.6,531.4,777.7,925.8c48.1,137,63,214.8,127.8,653.6c53.7,364.8,148.1,840.6,229.6,1168.3
		c79.6,312.9,222.2,568.4,414.7,742.5c96.3,85.2,372.2,281.4,381.4,272.2c3.7-3.7,40.7-77.8,81.5-164.8
		c96.3-200,159.2-420.3,188.9-661l24.1-190.7h198.1c366.6,0,624-101.8,861-340.7c227.7-227.7,327.7-472.1,325.9-796.2
		c0-157.4-9.3-218.5-50-342.5c-109.2-333.3-355.5-590.6-688.8-718.4c-118.5-46.3-146.3-48.1-688.8-63
		c-311.1-9.3-588.8-11.1-616.6-5.6l-53.7,11.1l7.4-194.4c5.6-211.1,24.1-253.7,133.3-335.1c48.1-37,74.1-38.9,572.1-38.9
		c568.4,1.9,601.8,5.6,903.6,122.2c268.5,103.7,572.1,351.8,757.3,622.1c205.5,296.2,285.1,566.6,283.3,959.1
		c-1.9,309.2-37,470.3-161.1,722.1c-150,303.7-361.1,537-648,712.8c-162.9,101.8-403.6,196.3-548.1,214.8
		c-53.7,7.4-98.1,22.2-101.8,33.3c-98.1,340.7-155.5,487-266.6,675.8l-59.2,98.1l114.8,114.8c162.9,159.2,298.1,346.2,403.6,553.6
		l90.7,177.7l42.6-48.1c24.1-25.9,87-66.7,137-90.7c231.4-109.2,618.4-13,898,225.9c198.1,168.5,412.9,288.8,577.7,324l96.3,22.2
		l-63,53.7c-296.2,251.8-620.3,385.1-935,385.1c-168.5,0-403.6-51.8-505.5-111.1c-35.2-22.2-66.7-37-68.5-33.3s0,116.6,7.4,251.8
		l11.1,244.4h-175.9C6299.2,6390,6238.1,6380.7,6191.8,6356.7z M6519.5,6101.2c3.7-179.6,9.3-211.1,42.6-240.7
		c35.2-31.5,40.7-31.5,124.1,0c353.6,135.2,672.1,129.6,979.5-14.8c146.3-70.4,301.8-170.3,301.8-194.4c0-9.3-55.5-42.6-122.2-74.1
		c-140.7-66.7-242.6-133.3-414.7-272.2c-205.5-164.8-416.6-248.1-618.4-248.1c-112.9,0-187,25.9-322.2,112.9
		c-90.7,59.2-135.2,37-207.4-98.1c-111.1-211.1-250-411-394.4-562.9c-88.9-94.4-142.6-166.6-142.6-192.6c0-22.2,37-109.2,81.5-190.7
		c46.3-83.3,116.6-251.8,159.2-374c40.7-122.2,92.6-238.9,111.1-259.2c22.2-24.1,83.3-48.1,151.8-63
		c472.1-96.3,911-449.9,1118.3-899.9c170.3-370.3,196.3-801.7,68.5-1194.3c-187-574-727.7-1014.7-1338.7-1090.6
		c-238.9-31.5-875.8-25.9-951.7,5.6c-96.3,40.7-122.2,92.6-122.2,246.3v135.2h440.7c644.3,0,831.3,37,1099.8,214.8
		c177.7,118.5,316.6,281.4,412.9,479.6c105.5,220.3,127.8,325.9,116.6,585.1c-14.8,327.7-116.6,559.2-349.9,792.5
		c-231.4,231.4-472.1,335.1-809.1,349.9c-244.4,9.3-229.6-3.7-262.9,235.1c-38.9,285.1-194.4,681.4-288.8,744.3
		c-55.5,35.2-98.1,20.4-259.2-90.7c-274-187-492.5-468.4-590.6-755.4c-88.9-261.1-216.6-885-305.5-1486.8
		c-50-338.8-83.3-474-166.6-653.6c-179.6-390.7-481.4-688.8-792.5-785.1c-109.2-33.3-172.2-37-788.8-37
		c-366.6,0-731.4,9.3-807.3,18.5c-537,70.4-1001.7,351.8-1294.2,783.2c-161.1,238.9-288.8,618.4-309.2,920.2
		c-27.8,398.1,125.9,862.8,392.5,1201.7c220.3,279.6,488.8,462.9,853.6,586.9c124.1,40.7,238.9,85.2,253.7,98.1
		c16.7,14.8,64.8,100,111.1,194.4c212.9,446.2,603.6,844.3,1044.3,1064.6c164.8,83.3,464.7,179.6,659.2,214.8
		c90.7,14.8,264.8,27.8,388.8,27.8c577.7,0,1051.7-172.2,1527.5-553.6c64.8-51.8,129.6-94.4,144.4-94.4s72.2,44.4,129.6,98.1
		c285.1,268.5,466.6,674,524,1177.6c25.9,235.1,38.9,270.3,114.8,316.6c48.1,29.6,87,37,181.5,33.3l120.4-5.6L6519.5,6101.2z"/>
	<path d="M3412.6,4897.6c-699.9-150-1236.8-629.5-1460.9-1303.5c-22.2-66.7-46.3-129.6-53.7-142.6c-7.4-11.1-83.3-31.5-170.3-42.6
		c-407.3-55.5-727.7-238.9-959.1-553.6C172.4,2053.7,576,931.6,1551.8,674.2c88.9-24.1,253.7-31.5,829.5-37l718.4-9.3l98.1,48.1
		c261.1,127.8,505.5,468.4,574,798c14.8,72.2,53.7,311.1,85.2,533.2c72.2,487,79.6,466.6-153.7,479.6c-174,9.3-264.8,48.1-412.9,174
		c-98.1,83.3-168.5,177.7-312.9,425.9c-48.1,83.3-137,207.4-196.3,277.7c-70.4,79.6-103.7,131.5-92.6,142.6
		c29.6,29.6,257.4,66.7,399.9,66.7c281.4,1.9,549.9-96.3,775.8-281.4c70.4-59.2,140.7-105.5,159.2-105.5
		c42.6,0,79.6,48.1,120.4,157.4c46.3,125.9,150,335.1,218.5,433.3c88.9,129.6,288.8,331.4,448.1,451.8
		c81.5,63,157.4,125.9,170.3,142.6c63,77.8,9.3,148.1-216.6,285.1c-174,107.4-387,190.7-601.8,235.1
		C3962.5,4934.7,3592.2,4936.5,3412.6,4897.6z M4273.6,4790.3c211.1-63,431.4-168.5,583.2-281.4l118.5-87l-64.8-33.3
		c-107.4-55.5-353.6-262.9-466.6-390.7c-59.2-66.7-148.1-190.7-198.1-274c-90.7-151.8-203.7-412.9-203.7-475.9
		c-1.9-27.8-7.4-25.9-42.6,14.8c-79.6,90.7-251.8,216.6-368.5,272.2c-255.5,122.2-648,146.3-957.3,59.2
		c-198.1-55.5-200-57.4-105.5-124.1c111.1-77.8,266.6-272.2,364.8-451.8c153.7-279.6,298.1-437,507.3-549.9
		c79.6-42.6,114.8-50,253.7-50c135.2,0,161.1-3.7,153.7-27.8c-3.7-14.8-24.1-140.7-46.3-277.7c-118.5-761-133.3-816.5-259.2-1009.1
		c-98.1-150-270.3-314.8-381.4-364.8c-85.2-37-109.2-37-783.2-27.8c-755.4,9.3-814.7,16.7-1046.1,122.2
		c-155.5,70.4-237,127.8-370.3,257.4c-261.1,253.7-399.9,585.1-399.9,946.1c0,203.7,42.6,375.9,140.7,574
		c72.2,146.3,112.9,201.8,246.3,333.3c251.8,251.8,461,351.8,820.2,392.5l192.6,20.4l31.5,118.5
		c168.5,646.2,712.8,1179.4,1355.3,1327.6c72.2,16.7,146.3,33.3,166.6,38.9s162.9,5.6,314.8,3.7
		C4064.4,4840.2,4132.9,4831,4273.6,4790.3z"/>
</g>
</svg>
