<?xml version="1.0" encoding="utf-8"?>
<!-- Generator: Adobe Illustrator 25.4.1, SVG Export Plug-In . SVG Version: 6.00 Build 0)  -->
<svg version="1.1" id="Layer_1" xmlns="http://www.w3.org/2000/svg" xmlns:xlink="http://www.w3.org/1999/xlink" x="0px" y="0px"
	 viewBox="0 0 816 649" style="enable-background:new 0 0 816 649;" xml:space="preserve">
<g transform="translate(0.000000,649.000000) scale(0.100000,-0.100000)">
	<path d="M6184.5,6352.9c-98.3-59.3-126.1-126.1-150.2-361.6c-51.9-487.7-237.4-912.4-510-1175.7l-66.8-64.9l-50.1,40.8
		c-319,257.8-561.9,400.5-843.7,497c-554.5,189.1-1160.8,168.7-1715.3-59.3c-517.4-211.4-968-636.1-1222-1149.7l-102-207.7
		l-124.2-31.5C853.2,3703,346.9,3259.8,137.4,2733.2C28,2462.4,15,2384.5,15,2032.2c0-281.9,5.6-344.9,42.7-482.1
		c92.7-337.5,267-632.3,521.1-875.3c250.3-242.9,510-385.7,879-484C1604.2,151.9,1645,150,2435,150h825.2l166.9,81.6
		c144.6,68.6,192.9,105.7,352.3,268.9c319,322.7,445.1,593.4,519.2,1114.5c68.6,482.1,168.7,1006.9,261.5,1372.2
		c83.4,328.2,235.5,587.8,450.6,765.9c126.1,105.7,302.3,226.2,330.1,226.2c29.7,0,128-198.4,189.1-382
		c31.5-90.9,70.5-267,87.2-393.1l31.5-226.2H5847c367.2,0,626.8-102,862.3-341.2c228.1-229.9,324.5-472.9,324.5-808.5
		c0-324.5-111.3-576.7-354.2-806.7c-148.4-139.1-363.5-255.9-534.1-287.4c-53.8-9.3-229.9-18.5-389.4-18.5s-409.8-5.6-554.5-13
		l-267-11.1l7.4-181.7c5.6-194.7,26-241.1,133.5-320.8c48.2-37.1,74.2-38.9,563.7-38.9c443.2,0,532.2,5.6,652.7,35.2
		c623.1,157.6,1112.6,641.6,1264.7,1244.3c57.5,229.9,57.5,617.5-1.9,834.5c-122.4,456.2-426.5,845.6-836.3,1070
		c-142.8,77.9-348.6,153.9-465.5,172.5c-109.4,16.7-115,22.3-140.9,120.5c-42.7,166.9-139.1,404.3-218.8,545.2l-81.6,144.6
		l140.9,140.9c148.4,152.1,296.7,361.6,395,560c33.4,66.8,63,124.2,66.8,128c3.7,5.6,31.5-13,59.3-40.8
		c142.8-135.4,367.2-165,624.9-77.9c172.5,57.5,235.5,92.7,398.7,224.4c226.2,179.9,432.1,294.8,599,330.1
		c27.8,7.4,50.1,18.5,50.1,27.8c0,29.7-291.1,239.2-415.4,298.6c-339.4,161.3-771.4,170.6-1062.6,22.3l-72.3-37.1l7.4,248.5
		l7.4,248.5h-181.7C6279.1,6390,6234.6,6382.6,6184.5,6352.9z M4150.3,4815.6c274.4-55.6,591.5-200.3,760.3-343.1
		c46.4-40.8,50.1-50.1,27.8-64.9c-113.1-70.5-346.8-261.5-441.3-361.6c-189.1-204-348.6-467.3-422.8-701
		c-33.4-107.6-55.6-131.7-74.2-81.6c-16.7,44.5-246.6,211.4-367.2,268.9c-181.7,87.2-372.7,120.5-611.9,107.6
		c-205.8-9.3-493.3-76-506.2-115c-1.9-9.3,29.7-42.7,70.5-72.3c102-72.3,250.3-255.9,348.6-432.1
		c176.2-311.5,304.1-452.5,515.5-556.3c122.4-61.2,142.8-64.9,268.9-59.3l139.1,7.4l-14.8-74.2c-7.4-40.8-40.8-248.5-72.3-461.7
		c-31.5-213.3-77.9-448.8-100.1-522.9c-77.9-241.1-313.4-535.9-497-619.4c-72.3-33.4-126.1-37.1-617.5-37.1
		c-294.8,0-634.2,9.3-751,18.5c-374.6,31.5-599,131.7-854.9,387.6c-135.4,133.5-174.3,187.3-246.6,337.5
		c-189.1,389.4-189.1,765.9-1.9,1157.1c194.7,408,584.1,676.8,1057,732.5c102,11.1,191,27.8,196.6,33.4
		c5.6,7.4,38.9,96.4,70.5,198.4c105.7,324.5,255.9,561.9,500.7,791.8C2948.6,4752.6,3582.8,4934.3,4150.3,4815.6z"/>
</g>
</svg>
