 <svg  version="1.0" xmlns="http://www.w3.org/2000/svg"  width="300.000000pt" height="300.000000pt" viewBox="0 0 300.000000 300.000000"  preserveAspectRatio="xMidYMid meet">  <g transform="translate(0.000000,300.000000) scale(0.100000,-0.100000)" fill="#ffffff" stroke="none"> <path d="M332 2834 c-12 -8 -22 -25 -22 -37 0 -15 152 -173 505 -527 278 -278 505 -512 505 -520 0 -8 -258 -273 -574 -590 -316 -316 -579 -585 -585 -597 -6 -13 -11 -78 -11 -158 0 -147 11 -185 53 -185 15 0 223 201 677 655 360 360 660 655 665 655 5 0 285 -275 621 -611 651 -651 640 -641 671 -579 20 40 18 289 -3 320 -27 41 -2147 2160 -2176 2176 -40 21 -295 20 -326 -2z m1391 -1111 l1087 -1088 0 -153 0 -153 -630 635 -631 634 -679 -681 -679 -682 -1 160 0 160 595 595 c327 327 595 599 595 603 0 5 -235 245 -523 533 l-524 524 151 0 151 0 1088 -1087z"/> <path d="M910 2832 c-17 -14 -21 -25 -17 -43 8 -30 337 -359 360 -359 21 0 153 124 173 162 12 22 12 33 3 51 -18 33 -160 177 -191 193 -19 10 -66 14 -166 14 -121 0 -143 -3 -162 -18z m403 -119 l98 -97 -78 -78 -78 -78 -175 175 -175 175 155 0 155 0 98 -97z"/> <path d="M1486 2829 c-14 -11 -26 -25 -26 -31 0 -15 66 -78 82 -78 21 0 78 59 78 81 0 46 -87 65 -134 28z m114 -22 c0 -2 -13 -15 -28 -30 l-28 -27 -29 30 -29 30 57 0 c31 0 57 -1 57 -3z"/> <path d="M1845 2831 c-16 -10 -132 -122 -257 -248 -165 -166 -228 -235 -228 -252 0 -15 25 -49 73 -98 78 -82 102 -96 132 -81 29 15 592 577 617 616 l20 33 -23 25 c-22 23 -27 24 -163 24 -121 0 -145 -3 -171 -19z m18 -333 c-173 -172 -317 -314 -321 -316 -4 -1 -41 32 -82 73 l-75 75 240 240 240 240 156 0 155 0 -313 -312z"/> <path d="M2043 2457 c-301 -300 -393 -398 -393 -416 0 -30 156 -191 185 -191 25 0 933 906 942 939 4 18 0 29 -17 43 -19 16 -42 18 -173 18 l-152 0 -392 -393z m257 -112 l-465 -465 -80 80 -80 80 385 385 385 385 160 0 160 0 -465 -465z"/> <path d="M166 2678 c-13 -18 -16 -52 -16 -160 0 -75 4 -147 9 -161 9 -24 735 -756 778 -784 20 -14 26 -13 57 6 42 26 142 133 151 161 4 13 -1 30 -14 48 -11 15 -219 226 -463 470 -312 310 -450 442 -465 442 -12 0 -29 -10 -37 -22z m876 -1003 l-77 -81 -387 385 -388 386 0 158 0 159 464 -464 465 -463 -77 -80z"/> <path d="M2372 2208 c-369 -369 -432 -437 -432 -467 0 -13 137 -159 162 -172 12 -7 26 -5 45 5 33 18 676 661 692 693 6 12 11 77 11 153 0 145 -12 190 -52 190 -15 0 -142 -120 -426 -402z m93 -268 l-345 -346 -75 76 -75 75 418 420 417 420 3 -150 2 -150 -345 -345z"/> <path d="M184 2112 c-31 -20 -34 -54 -34 -369 0 -443 -4 -439 228 -210 178 176 196 198 186 229 -8 25 -261 288 -318 329 -42 31 -45 32 -62 21z m181 -541 l-175 -175 0 350 0 351 175 -176 175 -176 -175 -174z"/> <path d="M2503 1757 c-202 -201 -273 -279 -273 -296 0 -15 25 -48 73 -98 89 -92 99 -98 134 -79 30 16 369 355 397 396 13 20 16 51 16 158 0 148 -12 192 -53 192 -15 0 -102 -81 -294 -273z m110 -252 l-198 -201 -79 77 -78 76 273 275 274 275 3 -150 3 -150 -198 -202z"/> <path d="M412 1408 c-128 -128 -240 -245 -248 -260 -10 -19 -14 -64 -14 -161 0 -121 2 -137 21 -161 11 -14 28 -26 37 -26 18 0 603 579 633 628 l21 32 -21 34 c-35 57 -138 146 -168 146 -22 0 -73 -46 -261 -232z m338 128 l76 -74 -318 -319 -318 -319 0 155 0 156 237 237 c131 131 240 238 242 238 3 0 39 -33 81 -74z"/> <path d="M2654 1328 c-97 -96 -134 -140 -134 -158 0 -16 35 -59 123 -147 67 -69 131 -129 141 -135 16 -9 24 -6 43 16 23 27 23 31 23 262 0 141 -4 243 -10 254 -6 11 -20 25 -31 31 -19 10 -34 -2 -155 -123z m156 -160 l0 -263 -132 132 -133 133 130 130 c71 71 131 130 132 130 2 0 3 -118 3 -262z"/> <path d="M1458 1293 c-80 -77 -101 -108 -94 -137 5 -21 876 -904 965 -979 32 -27 34 -27 181 -27 128 0 151 2 170 18 17 14 21 25 17 43 -4 14 -244 262 -564 582 -472 471 -563 557 -586 557 -21 0 -45 -16 -89 -57z m659 -538 l567 -565 -159 0 -160 0 -488 488 -488 488 73 75 c40 42 76 77 81 77 4 1 262 -252 574 -563z"/> <path d="M808 642 c-230 -230 -418 -425 -418 -435 0 -9 9 -26 20 -37 18 -18 33 -20 172 -20 l152 0 339 338 c186 185 345 348 352 363 11 21 11 30 -2 57 -24 50 -139 152 -171 152 -22 0 -101 -75 -444 -418z m525 311 l74 -72 -346 -346 -346 -345 -150 0 -151 0 416 418 c228 230 418 418 422 418 4 -1 40 -33 81 -73z"/> <path d="M1248 503 c-150 -150 -272 -279 -275 -292 -4 -18 0 -29 17 -43 19 -15 41 -18 162 -18 82 0 148 5 161 11 32 16 386 369 403 402 14 26 13 31 -6 62 -34 55 -137 145 -167 145 -21 0 -81 -54 -295 -267z m375 160 l74 -72 -201 -200 -201 -201 -153 0 -154 0 274 274 c150 151 276 273 280 272 4 0 40 -33 81 -73z"/> <path d="M1815 478 c-11 -6 -75 -65 -142 -132 -129 -127 -143 -151 -101 -180 19 -13 61 -16 259 -16 131 0 245 3 253 6 27 10 38 41 25 67 -15 30 -218 235 -249 252 -19 10 -31 10 -45 3z m153 -160 l130 -128 -266 0 -267 0 130 130 c71 72 133 129 137 128 4 -2 65 -60 136 -130z"/> </g> </svg> 