<?xml version="1.0" encoding="utf-8"?>
<!-- Generator: Adobe Illustrator 25.4.1, SVG Export Plug-In . SVG Version: 6.00 Build 0)  -->
<svg version="1.1" id="Layer_1" xmlns="http://www.w3.org/2000/svg" xmlns:xlink="http://www.w3.org/1999/xlink" x="0px" y="0px"
	 viewBox="0 0 816 649" style="enable-background:new 0 0 816 649;" xml:space="preserve">
<style type="text/css">
	.st0{fill:#FFFFFF;}
</style>
<g transform="translate(0.000000,649.000000) scale(0.100000,-0.100000)">
	<path class="st0" d="M6194.8,6352.9c-98.4-59.4-126.3-126.3-150.5-362.2c-52-488.5-237.8-913.9-510.8-1177.6l-66.9-65l-50.2,40.9
		c-319.5,258.2-562.8,401.2-845.1,497.8c-555.4,189.5-1162.8,169-1718.2-59.4c-518.2-211.8-969.6-637.1-1224.1-1151.6l-102.2-208
		l-124.5-31.6c-548-137.5-1055-581.4-1264.9-1108.9C28,2455.9,15,2377.9,15,2024.9c0-282.3,5.6-345.5,42.7-482.9
		c92.9-338.1,267.5-633.4,521.9-876.7c250.8-243.3,510.8-386.4,880.4-484.8c146.7-39,187.6-40.9,978.9-40.9h826.6l167.2,81.7
		c144.9,68.7,193.2,105.9,352.9,269.3c319.5,323.2,445.8,594.4,520.1,1116.3c68.7,482.9,169,1008.6,261.9,1374.5
		c83.6,328.8,235.9,588.8,451.4,767.1c126.3,105.9,302.8,226.6,330.6,226.6c29.7,0,128.2-198.7,189.5-382.6
		c31.6-91,70.6-267.5,87.3-393.8l31.6-226.6h198.7c367.8,0,627.8-102.2,863.7-341.8c228.5-230.3,325.1-473.7,325.1-809.9
		c0-325.1-111.4-577.7-354.8-808c-148.6-139.3-364.1-256.3-535-287.9c-53.9-9.3-230.3-18.6-390.1-18.6c-159.7,0-410.5-5.6-555.4-13
		L4942.9,682l7.4-182c5.6-195,26-241.5,133.7-321.3c48.3-37.1,74.3-39,564.7-39c443.9,0,533.1,5.6,653.8,35.3
		C6926.6,332.8,7417,817.6,7569.3,1421.3c57.6,230.3,57.6,618.5-1.9,835.9c-122.6,456.9-427.2,847-837.7,1071.8
		c-143,78-349.2,154.2-466.2,172.7c-109.6,16.7-115.2,22.3-141.2,120.7c-42.7,167.2-139.3,404.9-219.2,546.1l-81.7,144.9
		l141.2,141.2c148.6,152.3,297.2,362.2,395.6,561c33.4,66.9,63.2,124.5,66.9,128.2c3.7,5.6,31.6-13,59.4-40.9
		c143-135.6,367.8-165.3,626-78c172.7,57.6,235.9,92.9,399.4,224.8c226.6,180.2,432.8,295.3,600,330.6c27.9,7.4,50.2,18.6,50.2,27.9
		c0,29.7-291.6,239.6-416.1,299.1c-339.9,161.6-772.7,170.9-1064.3,22.3l-72.4-37.1l7.4,248.9l7.4,248.9h-182
		C6289.5,6390,6244.9,6382.6,6194.8,6352.9z M4157.2,4813c274.9-55.7,592.5-200.6,761.6-343.6c46.4-40.9,50.2-50.2,27.9-65
		c-113.3-70.6-347.3-261.9-442.1-362.2C4315,3837.8,4155.3,3574.1,4081,3340c-33.4-107.7-55.7-131.9-74.3-81.7
		c-16.7,44.6-247,211.8-367.8,269.3c-182,87.3-373.4,120.7-613,107.7c-206.2-9.3-494.1-76.2-507.1-115.2
		c-1.9-9.3,29.7-42.7,70.6-72.4c102.2-72.4,250.8-256.3,349.2-432.8c176.5-312.1,304.6-453.2,516.4-557.2
		c122.6-61.3,143-65,269.3-59.4l139.3,7.4l-14.9-74.3c-7.4-40.9-40.9-248.9-72.4-462.5s-78-449.5-100.3-523.8
		c-78-241.5-313.9-536.8-497.8-620.4c-72.4-33.4-126.3-37.1-618.5-37.1c-295.3,0-635.3,9.3-752.3,18.6
		c-375.2,31.6-600,131.9-856.3,388.2c-135.6,133.7-174.6,187.6-247,338.1c-189.5,390.1-189.5,767.1-1.9,1159.1
		c195,408.6,585.1,678,1058.8,733.7c102.2,11.1,191.3,27.9,196.9,33.4c5.6,7.4,39,96.6,70.6,198.7
		c105.9,325.1,256.3,562.8,501.5,793.1C2953.5,4749.9,3588.8,4931.9,4157.2,4813z"/>
</g>
</svg>
