<?xml version="1.0" standalone="no"?>
<!DOCTYPE svg PUBLIC "-//W3C//DTD SVG 20010904//EN"
 "http://www.w3.org/TR/2001/REC-SVG-20010904/DTD/svg10.dtd">
<svg version="1.0" xmlns="http://www.w3.org/2000/svg"
 width="519.000000pt" height="519.000000pt" viewBox="0 0 519.000000 519.000000"
 preserveAspectRatio="xMidYMid meet">
<g transform="translate(0.000000,519.000000) scale(0.100000,-0.100000)"
fill="#000000" stroke="none">
<path d="M0 2595 l0 -2595 2595 0 2595 0 0 2595 0 2595 -2595 0 -2595 0 0
-2595z m2977 383 l1883 -1883 0 -255 0 -255 -1093 1093 -1094 1094 -1171
-1174 -1171 -1173 -1 260 0 260 1042 1042 1043 1043 -915 915 -915 915 255 0
255 0 1882 -1882z m-717 1717 l165 -165 -128 -127 -127 -128 -292 293 -293
292 255 0 255 0 165 -165z m953 -377 l-543 -543 -127 128 -128 127 415 415
415 415 255 0 255 0 -542 -542z m757 -253 l-795 -795 -130 130 -130 130 665
665 665 665 260 0 260 0 -795 -795z m-2175 -1165 l-130 -130 -667 667 -668
668 0 260 0 260 797 -797 798 -798 -130 -130z m2473 463 l-593 -593 -127 127
-128 128 717 717 718 718 3 -252 2 -253 -592 -592z m-3640 -46 l292 -292 -295
-295 -295 -295 0 588 c0 323 1 587 3 587 1 0 134 -132 295 -293z m3890 -704
l-343 -343 -127 127 -128 128 467 467 468 468 3 -252 2 -253 -342 -342z
m-3640 -630 l-543 -543 -3 252 -2 253 417 417 418 418 127 -127 128 -128 -542
-542z m3982 40 l0 -438 -220 220 -220 220 217 217 c120 120 219 218 220 218 2
0 3 -197 3 -437z m-497 -1691 l-258 -2 -845 845 -845 845 130 130 130 130 972
-972 973 -973 -257 -3z m-2063 1313 l125 -125 -595 -595 -595 -595 -255 0
-255 0 720 720 c396 396 722 720 725 720 3 0 61 -56 130 -125z m500 -500 l125
-125 -345 -345 -345 -345 -255 0 -255 0 470 470 c258 259 472 470 475 470 3 0
61 -56 130 -125z m595 -595 l220 -220 -445 0 -445 0 220 220 c121 121 222 220
225 220 3 0 104 -99 225 -220z"/>
</g>
</svg>
