<?xml version="1.0" standalone="no"?>
<!DOCTYPE svg PUBLIC "-//W3C//DTD SVG 20010904//EN"
 "http://www.w3.org/TR/2001/REC-SVG-20010904/DTD/svg10.dtd">
<svg version="1.0" xmlns="http://www.w3.org/2000/svg"
 width="865.000000pt" height="865.000000pt" viewBox="0 0 865.000000 865.000000"
 preserveAspectRatio="xMidYMid meet">
<metadata>
Created by potrace 1.14, written by Peter Selinger 2001-2017
</metadata>
<g transform="translate(0.000000,865.000000) scale(0.100000,-0.100000)"
fill="#000000" stroke="none">
<path d="M989 8646 c-4 -5 -26 -10 -86 -21 -28 -5 -45 -12 -166 -60 -299 -121
-563 -403 -671 -717 -15 -43 -29 -87 -31 -99 -2 -11 -6 -28 -9 -37 -3 -9 -8
-35 -13 -57 -10 -50 -11 -6554 0 -6615 21 -130 47 -211 109 -340 28 -58 53
-107 57 -110 3 -3 24 -32 46 -64 90 -135 271 -291 431 -374 124 -63 345 -132
412 -127 12 1 22 -2 22 -7 0 -4 1458 -8 3240 -8 2147 0 3240 3 3240 10 0 6 5
10 11 10 5 0 7 -6 3 -13 -6 -9 -4 -9 7 -1 8 6 30 14 49 18 33 6 59 11 98 20 9
2 37 12 62 21 25 9 50 17 55 19 68 20 275 131 275 147 0 5 6 9 13 9 20 1 151
121 221 203 91 108 179 267 220 397 10 30 20 62 23 70 3 8 7 22 8 30 1 8 6 31
9 50 4 19 10 51 13 70 7 47 6 6494 -1 6545 -3 22 -10 61 -16 86 -6 26 -13 53
-14 60 -2 8 -6 21 -9 29 -3 8 -11 33 -17 55 -37 123 -159 324 -267 438 -53 56
-195 177 -208 177 -4 0 -19 9 -34 19 -52 37 -255 131 -303 140 -5 0 -9 1 -10
2 -2 0 -10 2 -18 4 -8 2 -28 7 -45 11 -30 9 -6698 18 -6706 10z"/>
</g>
</svg>
